{
    "asset" : {
        "generator" : "Khronos glTF Blender I/O v3.4.50",
        "version" : "2.0"
    },
    "scene" : 0,
    "scenes" : [
        {
            "name" : "Scene",
            "nodes" : [
                4
            ]
        }
    ],
    "nodes" : [
        {
            "mesh" : 0,
            "name" : "Body",
            "scale" : [
                1.2999999523162842,
                1.2999999523162842,
                1.2999999523162842
            ],
            "translation" : [
                0,
                0,
                -65
            ]
        },
        {
            "mesh" : 1,
            "name" : "Eye_L",
            "scale" : [
                0.111111119389534,
                0.111111119389534,
                0.222222238779068
            ],
            "translation" : [
                16.03333282470703,
                40.23332977294922,
                -15.222230911254883
            ]
        },
        {
            "mesh" : 2,
            "name" : "Eye_R",
            "scale" : [
                0.111111119389534,
                0.111111119389534,
                0.222222238779068
            ],
            "translation" : [
                -16.03333282470703,
                40.23332977294922,
                -15.222230911254883
            ]
        },
        {
            "children" : [
                1,
                2
            ],
            "mesh" : 3,
            "name" : "Head",
            "scale" : [
                0.8999999761581421,
                0.8999999761581421,
                0.8999999761581421
            ],
            "translation" : [
                0,
                0,
                -151.3000030517578
            ]
        },
        {
            "children" : [
                0,
                3
            ],
            "name" : "PlayerVisual",
            "rotation" : [
                0.7071068286895752,
                0,
                0,
                0.7071068286895752
            ],
            "scale" : [
                0.009999999776482582,
                0.009999999776482582,
                0.009999999776482582
            ]
        }
    ],
    "materials" : [
        {
            "doubleSided" : true,
            "name" : "PlayerBody.001",
            "pbrMetallicRoughness" : {
                "baseColorFactor" : [
                    1,
                    0.7076585292816162,
                    0,
                    1
                ],
                "metallicFactor" : 0,
                "roughnessFactor" : 0.5527864098548889
            }
        },
        {
            "doubleSided" : true,
            "name" : "Black.001",
            "pbrMetallicRoughness" : {
                "baseColorFactor" : [
                    0,
                    0,
                    0,
                    1
                ],
                "metallicFactor" : 0,
                "roughnessFactor" : 0.5527864098548889
            }
        }
    ],
    "meshes" : [
        {
            "name" : "Scene.005",
            "primitives" : [
                {
                    "attributes" : {
                        "POSITION" : 0,
                        "TEXCOORD_0" : 1,
                        "TEXCOORD_1" : 2,
                        "NORMAL" : 3
                    },
                    "indices" : 4,
                    "material" : 0
                }
            ]
        },
        {
            "name" : "Scene.004",
            "primitives" : [
                {
                    "attributes" : {
                        "POSITION" : 5,
                        "TEXCOORD_0" : 6,
                        "TEXCOORD_1" : 7,
                        "NORMAL" : 8
                    },
                    "indices" : 4,
                    "material" : 1
                }
            ]
        },
        {
            "name" : "Scene.003",
            "primitives" : [
                {
                    "attributes" : {
                        "POSITION" : 9,
                        "TEXCOORD_0" : 10,
                        "TEXCOORD_1" : 11,
                        "NORMAL" : 12
                    },
                    "indices" : 4,
                    "material" : 1
                }
            ]
        },
        {
            "name" : "Scene.002",
            "primitives" : [
                {
                    "attributes" : {
                        "POSITION" : 13,
                        "TEXCOORD_0" : 14,
                        "TEXCOORD_1" : 15,
                        "NORMAL" : 16
                    },
                    "indices" : 4,
                    "material" : 0
                }
            ]
        }
    ],
    "accessors" : [
        {
            "bufferView" : 0,
            "componentType" : 5126,
            "count" : 509,
            "max" : [
                50,
                50,
                50
            ],
            "min" : [
                -50,
                -50,
                -50
            ],
            "type" : "VEC3"
        },
        {
            "bufferView" : 1,
            "componentType" : 5126,
            "count" : 509,
            "type" : "VEC2"
        },
        {
            "bufferView" : 2,
            "componentType" : 5126,
            "count" : 509,
            "type" : "VEC2"
        },
        {
            "bufferView" : 3,
            "componentType" : 5126,
            "count" : 509,
            "type" : "VEC3"
        },
        {
            "bufferView" : 4,
            "componentType" : 5123,
            "count" : 2304,
            "type" : "SCALAR"
        },
        {
            "bufferView" : 5,
            "componentType" : 5126,
            "count" : 509,
            "max" : [
                50,
                50,
                50
            ],
            "min" : [
                -50,
                -50,
                -50
            ],
            "type" : "VEC3"
        },
        {
            "bufferView" : 6,
            "componentType" : 5126,
            "count" : 509,
            "type" : "VEC2"
        },
        {
            "bufferView" : 7,
            "componentType" : 5126,
            "count" : 509,
            "type" : "VEC2"
        },
        {
            "bufferView" : 8,
            "componentType" : 5126,
            "count" : 509,
            "type" : "VEC3"
        },
        {
            "bufferView" : 9,
            "componentType" : 5126,
            "count" : 509,
            "max" : [
                50,
                50,
                50
            ],
            "min" : [
                -50,
                -50,
                -50
            ],
            "type" : "VEC3"
        },
        {
            "bufferView" : 10,
            "componentType" : 5126,
            "count" : 509,
            "type" : "VEC2"
        },
        {
            "bufferView" : 11,
            "componentType" : 5126,
            "count" : 509,
            "type" : "VEC2"
        },
        {
            "bufferView" : 12,
            "componentType" : 5126,
            "count" : 509,
            "type" : "VEC3"
        },
        {
            "bufferView" : 13,
            "componentType" : 5126,
            "count" : 509,
            "max" : [
                50,
                50,
                50
            ],
            "min" : [
                -50,
                -50,
                -50
            ],
            "type" : "VEC3"
        },
        {
            "bufferView" : 14,
            "componentType" : 5126,
            "count" : 509,
            "type" : "VEC2"
        },
        {
            "bufferView" : 15,
            "componentType" : 5126,
            "count" : 509,
            "type" : "VEC2"
        },
        {
            "bufferView" : 16,
            "componentType" : 5126,
            "count" : 509,
            "type" : "VEC3"
        }
    ],
    "bufferViews" : [
        {
            "buffer" : 0,
            "byteLength" : 6108,
            "byteOffset" : 0,
            "target" : 34962
        },
        {
            "buffer" : 0,
            "byteLength" : 4072,
            "byteOffset" : 6108,
            "target" : 34962
        },
        {
            "buffer" : 0,
            "byteLength" : 4072,
            "byteOffset" : 10180,
            "target" : 34962
        },
        {
            "buffer" : 0,
            "byteLength" : 6108,
            "byteOffset" : 14252,
            "target" : 34962
        },
        {
            "buffer" : 0,
            "byteLength" : 4608,
            "byteOffset" : 20360,
            "target" : 34963
        },
        {
            "buffer" : 0,
            "byteLength" : 6108,
            "byteOffset" : 24968,
            "target" : 34962
        },
        {
            "buffer" : 0,
            "byteLength" : 4072,
            "byteOffset" : 31076,
            "target" : 34962
        },
        {
            "buffer" : 0,
            "byteLength" : 4072,
            "byteOffset" : 35148,
            "target" : 34962
        },
        {
            "buffer" : 0,
            "byteLength" : 6108,
            "byteOffset" : 39220,
            "target" : 34962
        },
        {
            "buffer" : 0,
            "byteLength" : 6108,
            "byteOffset" : 45328,
            "target" : 34962
        },
        {
            "buffer" : 0,
            "byteLength" : 4072,
            "byteOffset" : 51436,
            "target" : 34962
        },
        {
            "buffer" : 0,
            "byteLength" : 4072,
            "byteOffset" : 55508,
            "target" : 34962
        },
        {
            "buffer" : 0,
            "byteLength" : 6108,
            "byteOffset" : 59580,
            "target" : 34962
        },
        {
            "buffer" : 0,
            "byteLength" : 6108,
            "byteOffset" : 65688,
            "target" : 34962
        },
        {
            "buffer" : 0,
            "byteLength" : 4072,
            "byteOffset" : 71796,
            "target" : 34962
        },
        {
            "buffer" : 0,
            "byteLength" : 4072,
            "byteOffset" : 75868,
            "target" : 34962
        },
        {
            "buffer" : 0,
            "byteLength" : 6108,
            "byteOffset" : 79940,
            "target" : 34962
        }
    ],
    "buffers" : [
        {
            "byteLength" : 86048,
            "uri" : "PlayerVisual.bin"
        }
    ]
}
